<svg width="32" height="32" viewBox="0 0 32 32" fill="none" xmlns="http://www.w3.org/2000/svg">
  <!-- Background circle -->
  <circle cx="16" cy="16" r="16" fill="#1E40AF"/>
  
  <!-- Shoe silhouette -->
  <path d="M6 19C6 19 8 17 12 17C16 17 18 18 22 18C26 18 28 17 30 19C30 21 28 23 24 23H12C8 23 6 21 6 19Z" fill="white"/>
  
  <!-- Shoe sole -->
  <path d="M8 23C8 23 10 24 14 24H22C26 24 28 23 28 23C28 24 26 25 22 25H14C10 25 8 24 8 23Z" fill="#F3F4F6"/>
  
  <!-- Shoe laces -->
  <circle cx="13" cy="16" r="1" fill="#1E40AF"/>
  <circle cx="16" cy="15" r="1" fill="#1E40AF"/>
  <circle cx="19" cy="16" r="1" fill="#1E40AF"/>
  
  <!-- South African flag colors accent -->
  <rect x="10" y="13" width="12" height="1.5" fill="#FFB612"/>
  <rect x="10" y="14.5" width="6" height="0.8" fill="#007A4D"/>
  <rect x="16" y="14.5" width="6" height="0.8" fill="#DE3831"/>
</svg>
