<svg width="40" height="40" viewBox="0 0 40 40" fill="none" xmlns="http://www.w3.org/2000/svg">
  <!-- Background circle -->
  <circle cx="20" cy="20" r="20" fill="#1E40AF"/>
  
  <!-- Shoe silhouette -->
  <path d="M8 24C8 24 10 22 14 22C18 22 20 23 24 23C28 23 30 22 32 24C32 26 30 28 26 28H14C10 28 8 26 8 24Z" fill="white"/>
  
  <!-- Shoe sole -->
  <path d="M10 28C10 28 12 29 16 29H24C28 29 30 28 30 28C30 29 28 30 24 30H16C12 30 10 29 10 28Z" fill="#F3F4F6"/>
  
  <!-- Shoe laces -->
  <circle cx="16" cy="20" r="1" fill="#1E40AF"/>
  <circle cx="20" cy="19" r="1" fill="#1E40AF"/>
  <circle cx="24" cy="20" r="1" fill="#1E40AF"/>
  
  <!-- South African flag colors accent -->
  <rect x="12" y="16" width="16" height="2" fill="#FFB612"/>
  <rect x="12" y="18" width="8" height="1" fill="#007A4D"/>
  <rect x="20" y="18" width="8" height="1" fill="#DE3831"/>
</svg>
